<?xml version="1.0" encoding="UTF-8" standalone="no"?>
<!-- Created with Inkscape (http://www.inkscape.org/) -->

<svg
   xmlns:dc="http://purl.org/dc/elements/1.1/"
   xmlns:cc="http://creativecommons.org/ns#"
   xmlns:rdf="http://www.w3.org/1999/02/22-rdf-syntax-ns#"
   xmlns:svg="http://www.w3.org/2000/svg"
   xmlns="http://www.w3.org/2000/svg"
   xmlns:sodipodi="http://sodipodi.sourceforge.net/DTD/sodipodi-0.dtd"
   xmlns:inkscape="http://www.inkscape.org/namespaces/inkscape"
   id="svg3004"
   version="1.1"
   inkscape:version="0.48.4 r9939"
   width="437.4375"
   height="64.3125"
   xml:space="preserve"
   sodipodi:docname="FeedHenry_Brand_Logo-clean.eps"><metadata
     id="metadata3010"><rdf:RDF><cc:Work
         rdf:about=""><dc:format>image/svg+xml</dc:format><dc:type
           rdf:resource="http://purl.org/dc/dcmitype/StillImage" /><dc:title></dc:title></cc:Work></rdf:RDF></metadata><defs
     id="defs3008"><clipPath
       clipPathUnits="userSpaceOnUse"
       id="clipPath3020"><path
         d="m 0,0 3499,0 0,514.527 -3499,0 L 0,0 z"
         id="path3022" /></clipPath></defs><sodipodi:namedview
     pagecolor="#ffffff"
     bordercolor="#666666"
     borderopacity="1"
     objecttolerance="10"
     gridtolerance="10"
     guidetolerance="10"
     inkscape:pageopacity="0"
     inkscape:pageshadow="2"
     inkscape:window-width="1388"
     inkscape:window-height="735"
     id="namedview3006"
     showgrid="false"
     inkscape:zoom="2.4940706"
     inkscape:cx="218.71875"
     inkscape:cy="32.15625"
     inkscape:window-x="0"
     inkscape:window-y="28"
     inkscape:window-maximized="0"
     inkscape:current-layer="g3012" /><g
     id="g3012"
     inkscape:groupmode="layer"
     inkscape:label="ink_ext_XXXXXX"
     transform="matrix(1.25,0,0,-1.25,0,64.3125)"><g
       id="g3014"
       transform="scale(0.1,0.1)"><g
         id="g3016"><g
           id="g3018"
           clip-path="url(#clipPath3020)"><path
             d="m 939.605,407.59 -146.203,0 c -3.414,0.027 -7.371,-0.918 -10.328,-3.879 -2.953,-2.965 -3.89,-6.918 -3.863,-10.336 l 0,-263.156 c -0.031,-3.418 0.91,-7.379 3.879,-10.34 2.973,-2.957 6.914,-3.875 10.312,-3.848 1.735,0.004 3.496,0.203 5.286,0.789 2.66,0.832 5.359,2.828 6.863,5.43 1.535,2.594 1.988,5.344 1.992,7.93 l 0,117.238 102.844,0 c 3.429,-0.031 7.426,0.945 10.367,3.937 2.934,2.997 3.848,6.934 3.824,10.364 -0.004,1.761 -0.207,3.543 -0.801,5.347 -0.839,2.688 -2.847,5.395 -5.461,6.899 -2.597,1.539 -5.347,1.988 -7.929,1.992 l -102.844,0 0,103.07 132.062,0 c 3.43,-0.027 7.415,0.93 10.375,3.911 2.954,2.988 3.872,6.941 3.848,10.355 0.024,3.422 -0.883,7.375 -3.84,10.375 -2.961,2.996 -6.953,3.949 -10.383,3.922"
             style="fill:#211c1d;fill-opacity:1;fill-rule:nonzero;stroke:none"
             id="path3024" /><path
             d="m 1219.36,379.027 c 3.43,-0.027 7.42,0.93 10.37,3.918 2.95,2.981 3.87,6.934 3.84,10.348 0.02,3.422 -0.88,7.371 -3.83,10.367 -2.96,3 -6.95,3.957 -10.38,3.93 l -146.21,0 c -3.41,0.027 -7.37,-0.914 -10.33,-3.891 -2.96,-2.972 -3.88,-6.918 -3.86,-10.324 l 0,-263.156 c -0.02,-3.403 0.9,-7.364 3.87,-10.332 2.98,-2.965 6.93,-3.883 10.32,-3.856 l 146.21,0 c 3.42,-0.031 7.4,0.918 10.37,3.907 2.96,2.988 3.87,6.937 3.84,10.355 0.03,3.426 -0.87,7.391 -3.85,10.395 -1.44,1.46 -3.25,2.496 -5.04,3.082 -1.79,0.589 -3.57,0.796 -5.32,0.8 l -132.02,0 0,103.043 102.77,0 c 3.42,-0.031 7.4,0.918 10.36,3.899 2.96,2.996 3.87,6.941 3.84,10.343 0.02,3.422 -0.86,7.368 -3.81,10.391 -1.43,1.469 -3.24,2.524 -5.04,3.121 -1.8,0.61 -3.59,0.821 -5.35,0.824 l -102.77,0 0,102.836 132.02,0"
             style="fill:#211c1d;fill-opacity:1;fill-rule:nonzero;stroke:none"
             id="path3026" /><path
             d="m 1508.88,379.027 c 3.43,-0.027 7.4,0.93 10.36,3.895 2.96,2.961 3.91,6.926 3.89,10.371 0.02,3.449 -0.92,7.414 -3.88,10.395 -2.97,2.972 -6.94,3.929 -10.37,3.902 l -146.23,0 c -1.76,-0.008 -3.54,-0.211 -5.34,-0.813 -2.69,-0.851 -5.38,-2.875 -6.87,-5.48 -1.52,-2.59 -1.97,-5.34 -1.97,-7.922 l 0,-263.156 c 0,-1.739 0.2,-3.504 0.79,-5.293 0.82,-2.672 2.82,-5.375 5.43,-6.891 2.6,-1.543 5.36,-2 7.96,-2.004 l 146.23,0 c 3.42,-0.027 7.39,0.918 10.35,3.879 2.97,2.965 3.92,6.934 3.9,10.383 0.02,3.457 -0.92,7.437 -3.9,10.414 -2.99,2.969 -6.95,3.887 -10.35,3.863 l -132.07,0 0,103.043 102.8,0 c 3.42,-0.031 7.38,0.926 10.34,3.887 2.96,2.965 3.9,6.922 3.87,10.355 0.03,3.454 -0.9,7.407 -3.84,10.407 -2.95,2.992 -6.94,3.957 -10.37,3.929 l -102.8,0 0,102.836 132.07,0"
             style="fill:#211c1d;fill-opacity:1;fill-rule:nonzero;stroke:none"
             id="path3028" /><path
             d="m 1822.88,178.965 c -23.16,-23.09 -50.31,-34.32 -83.01,-34.395 l -73.56,0 0,234.457 73.56,0 c 32.7,-0.066 59.85,-11.328 83.02,-34.324 23.11,-23.234 34.34,-50.269 34.41,-82.89 -0.07,-32.641 -11.31,-59.723 -34.4,-82.833 l -0.02,-0.015 z m -83.01,228.625 -87.74,0 c -3.4,0.027 -7.36,-0.93 -10.3,-3.895 -2.94,-2.965 -3.88,-6.902 -3.85,-10.32 l 0,-263.156 c -0.03,-3.418 0.91,-7.367 3.86,-10.328 2.95,-2.953 6.9,-3.887 10.29,-3.86 l 87.74,0 c 39.97,-0.074 74.87,14.399 103.1,42.696 28.34,28.222 42.8,63.132 42.72,103.086 0.08,39.953 -14.38,74.847 -42.71,103.054 -28.23,28.34 -63.14,42.793 -103.11,42.723"
             style="fill:#211c1d;fill-opacity:1;fill-rule:nonzero;stroke:none"
             id="path3030" /><path
             d="m 2190.26,407.59 c -3.41,0.023 -7.36,-0.879 -10.35,-3.844 -1.45,-1.441 -2.49,-3.242 -3.07,-5.027 -0.59,-1.789 -0.8,-3.567 -0.8,-5.313 l 0,-117.215 -147.1,0 0,117.215 c 0.03,3.426 -0.92,7.387 -3.89,10.34 -2.97,2.942 -6.91,3.867 -10.3,3.844 -3.41,0.027 -7.37,-0.918 -10.33,-3.883 -2.95,-2.977 -3.88,-6.922 -3.85,-10.332 l 0,-263.156 c -0.03,-3.414 0.9,-7.367 3.87,-10.332 2.97,-2.965 6.92,-3.883 10.31,-3.856 3.39,-0.027 7.33,0.899 10.3,3.848 2.97,2.953 3.92,6.918 3.89,10.34 l 0,117.394 147.1,0 0,-117.394 c 0,-1.742 0.21,-3.52 0.8,-5.313 0.84,-2.679 2.85,-5.379 5.46,-6.879 2.6,-1.539 5.36,-1.992 7.96,-1.996 3.38,-0.031 7.34,0.91 10.28,3.879 2.94,2.977 3.85,6.906 3.83,10.309 l 0,263.156 c 0.02,3.402 -0.88,7.324 -3.81,10.301 -2.93,2.98 -6.9,3.941 -10.3,3.914"
             style="fill:#211c1d;fill-opacity:1;fill-rule:nonzero;stroke:none"
             id="path3032" /><path
             d="m 2499.28,379.027 c 3.41,-0.035 7.4,0.953 10.32,3.946 2.91,2.992 3.81,6.906 3.79,10.32 0.02,3.418 -0.87,7.336 -3.78,10.34 -1.42,1.465 -3.21,2.519 -5,3.125 -1.79,0.609 -3.58,0.824 -5.33,0.832 l -146.27,0 c -3.42,0.023 -7.39,-0.906 -10.36,-3.879 -2.97,-2.984 -3.89,-6.938 -3.86,-10.336 l 0,-263.156 c 0,-1.742 0.21,-3.52 0.8,-5.313 0.84,-2.679 2.85,-5.379 5.46,-6.879 2.6,-1.539 5.36,-1.992 7.96,-1.996 l 146.27,0 c 3.4,-0.031 7.39,0.942 10.31,3.934 2.93,2.996 3.82,6.914 3.8,10.328 0.02,3.422 -0.86,7.352 -3.8,10.359 -1.43,1.465 -3.23,2.512 -5.01,3.102 -1.79,0.605 -3.56,0.812 -5.3,0.816 l -132.08,0 0,103.043 102.77,0 c 3.42,-0.031 7.39,0.918 10.35,3.887 2.96,2.973 3.89,6.934 3.87,10.355 0.02,3.442 -0.89,7.399 -3.84,10.407 -2.96,3 -6.96,3.957 -10.38,3.929 l -102.77,0 0,102.836 132.08,0"
             style="fill:#211c1d;fill-opacity:1;fill-rule:nonzero;stroke:none"
             id="path3034" /><path
             d="m 2847.36,407.59 c -3.41,0.027 -7.38,-0.926 -10.32,-3.902 -2.94,-2.981 -3.86,-6.911 -3.83,-10.313 l 0,-221.754 -178.71,229.668 -0.06,0.066 c -1.37,1.668 -2.93,3.153 -4.87,4.313 -1.92,1.156 -4.31,1.93 -6.77,1.922 -3.43,0.015 -7.38,-0.891 -10.38,-3.832 -3.01,-2.942 -3.98,-6.945 -3.95,-10.383 l 0,-263.156 c -0.03,-3.422 0.92,-7.403 3.9,-10.356 2.99,-2.949 6.93,-3.859 10.34,-3.832 3.39,-0.027 7.34,0.899 10.31,3.856 2.96,2.968 3.88,6.918 3.86,10.332 l 0,221.789 178.48,-229.766 0.08,-0.094 c 1.42,-1.695 3.05,-3.195 5.04,-4.316 1.97,-1.129 4.35,-1.812 6.71,-1.801 3.44,-0.015 7.35,0.852 10.39,3.766 1.48,1.418 2.56,3.215 3.17,5.023 0.63,1.817 0.85,3.625 0.85,5.399 l 0,263.156 c 0.03,3.406 -0.91,7.371 -3.88,10.344 -2.97,2.965 -6.94,3.894 -10.36,3.871"
             style="fill:#211c1d;fill-opacity:1;fill-rule:nonzero;stroke:none"
             id="path3036" /><path
             d="m 3170.59,320.301 c 0.07,23.863 -8.68,44.988 -25.59,61.734 -16.77,16.875 -37.87,25.625 -61.73,25.555 l -73.12,0 c -3.32,0.008 -7.13,-0.793 -10.15,-3.621 -1.47,-1.379 -2.55,-3.153 -3.17,-4.922 -0.62,-1.781 -0.84,-3.555 -0.84,-5.277 l 0,-263.774 c -0.03,-3.398 0.91,-7.336 3.84,-10.289 2.94,-2.961 6.89,-3.926 10.32,-3.898 3.43,-0.028 7.4,0.933 10.35,3.894 2.94,2.969 3.87,6.902 3.84,10.293 l 0,249.031 58.93,0 c 16.41,-0.066 29.79,-5.644 41.59,-17.285 11.72,-11.851 17.3,-25.101 17.37,-41.441 -0.07,-16.399 -5.64,-29.61 -17.37,-41.461 -11.79,-11.652 -25.17,-17.219 -41.59,-17.289 l -42.51,0 c -3.73,-0.012 -7.61,-0.696 -10.97,-3.41 -1.65,-1.34 -2.96,-3.172 -3.73,-5.094 -0.78,-1.934 -1.06,-3.91 -1.06,-5.813 0,-2.332 0.69,-4.511 1.68,-6.316 0.96,-1.762 2.22,-3.234 3.62,-4.59 l -0.02,-0.019 115.98,-116.118 0.09,-0.078 c 2.32,-2.379 5.95,-4.343 9.96,-4.304 3.44,-0.028 7.44,0.925 10.41,3.933 2.97,3.008 3.89,6.977 3.87,10.438 0.06,3.726 -1.7,7.437 -4.03,9.816 l -0.09,0.098 -92.99,92.89 9.71,0 c 23.88,-0.074 45.02,8.688 61.82,25.606 l -0.01,-0.016 c 16.91,16.739 25.66,37.875 25.59,61.727"
             style="fill:#211c1d;fill-opacity:1;fill-rule:nonzero;stroke:none"
             id="path3038" /><path
             d="m 3496.31,384.746 0.05,0.063 -0.05,-0.059 0,-0.004"
             style="fill:#211c1d;fill-opacity:1;fill-rule:nonzero;stroke:none"
             id="path3040" /><path
             d="m 3498.62,398.813 c -0.87,2.73 -2.93,5.445 -5.56,6.949 -2.62,1.539 -5.41,1.996 -8.05,2 -2.1,0.011 -4.34,-0.481 -6.32,-1.528 -1.94,-1.011 -3.56,-2.496 -4.83,-4.16 l 0,0.012 -91.1,-117.012 -91.17,116.891 -0.02,-0.024 c -1.17,1.618 -2.67,3.102 -4.55,4.153 -1.99,1.129 -4.31,1.679 -6.5,1.668 -3.44,0.027 -7.44,-0.899 -10.45,-3.895 -3.01,-3.008 -3.95,-7.015 -3.92,-10.492 -0.02,-3.43 1.46,-6.441 3.05,-8.512 l 0.05,-0.058 99.47,-127.852 0,-126.734 c -0.02,-3.414 0.91,-7.367 3.88,-10.336 2.98,-2.961 6.92,-3.879 10.32,-3.852 3.4,-0.027 7.34,0.891 10.32,3.86 2.97,2.976 3.88,6.929 3.86,10.328 l 0,126.738 99.21,127.793 c 1.77,2.172 3.19,5.348 3.14,8.625 -0.01,1.793 -0.22,3.613 -0.83,5.438"
             style="fill:#211c1d;fill-opacity:1;fill-rule:nonzero;stroke:none"
             id="path3042" /><path
             d="M 515.598,514.527 C 494.293,514.48 324.477,513.969 257.742,513.883 115.098,513.602 -0.3125,399.918 0,257.32 0.121094,186.59 1.14453,0 1.14453,0 L 295.18,1.04688 C 420.918,18.5156 516.719,125.605 516.465,256.137 c -0.098,63.394 0.551,258.39 -0.867,258.39"
             style="fill:#e12823;fill-opacity:1;fill-rule:nonzero;stroke:none"
             id="path3044" /><path
             d="m 269.184,88.125 c 11.808,0.4297 23.316,3.2305 34.105,7.6836 l 0,-0.4727 c 1.238,0.5782 2.348,1.2344 3.488,1.8985 7.68,3.4376 14.821,7.9256 21.485,13.2616 42.445,30.859 70.062,80.582 69.945,137.277 -0.098,46.993 -0.73,170.692 -0.73,170.692 l -94.879,-0.32 c 0,0 0.578,-214.868 0.578,-252.723 0,-37.82 -33.992,-77.297 -33.992,-77.297"
             style="fill:#ffffff;fill-opacity:1;fill-rule:nonzero;stroke:none"
             id="path3046" /><path
             d="m 269.184,88.125 c 11.808,0.4297 23.316,3.2305 34.105,7.6836 l 0,-0.4727 c 1.238,0.5782 2.348,1.2344 3.488,1.8985 7.68,3.4376 14.821,7.9256 21.485,13.2616 42.445,30.859 70.062,80.582 69.945,137.277 -0.098,46.993 -0.73,170.692 -0.73,170.692 l -94.879,-0.32 c 0,0 0.578,-214.868 0.578,-252.723 0,-37.82 -33.992,-77.297 -33.992,-77.297 z"
             style="fill:none;stroke:#ffffff;stroke-opacity:1;stroke-width:9.38251;stroke-linecap:butt;stroke-linejoin:miter;stroke-miterlimit:4;stroke-dasharray:none"
             id="path3048" /><path
             d="m 261.414,289.844 c -18.488,-0.739 -36.473,-5.059 -53.387,-11.809 -0.074,28.93 -0.132,52.766 -0.132,63.156 0,37.836 34.007,77.274 34.007,77.274 -11.843,-0.461 -23.312,-3.215 -34.093,-7.649 l 0,0.489 c -1.231,-0.567 -2.329,-1.27 -3.524,-1.848 -7.629,-3.492 -14.859,-8.004 -21.437,-13.309 -42.481,-30.855 -70.098,-80.558 -69.965,-137.332 0.09,-46.953 0.711,-170.691 0.711,-170.691 l 94.824,0.3398 c 0,0 -0.078,40.8592 -0.199,90.1292 6.156,56.347 53.195,111.25 53.195,111.25"
             style="fill:#ffffff;fill-opacity:1;fill-rule:nonzero;stroke:none"
             id="path3050" /><path
             d="m 261.414,289.844 c -18.488,-0.739 -36.473,-5.059 -53.387,-11.809 -0.074,28.93 -0.132,52.766 -0.132,63.156 0,37.836 34.007,77.274 34.007,77.274 -11.843,-0.461 -23.312,-3.215 -34.093,-7.649 l 0,0.489 c -1.231,-0.567 -2.329,-1.27 -3.524,-1.848 -7.629,-3.492 -14.859,-8.004 -21.437,-13.309 -42.481,-30.855 -70.098,-80.558 -69.965,-137.332 0.09,-46.953 0.711,-170.691 0.711,-170.691 l 94.824,0.3398 c 0,0 -0.078,40.8592 -0.199,90.1292 6.156,56.347 53.195,111.25 53.195,111.25 z"
             style="fill:none;stroke:#ffffff;stroke-opacity:1;stroke-width:9.38251;stroke-linecap:butt;stroke-linejoin:miter;stroke-miterlimit:4;stroke-dasharray:none"
             id="path3052" /></g></g></g></g></svg>